<svg xmlns="http://www.w3.org/2000/svg" viewBox="0 0 156.69 236.62"><defs><style>.cls-1{fill:#06467a;}</style></defs><title>blue</title><g id="Layer_2" data-name="Layer 2"><g id="Layer_1-2" data-name="Layer 1"><polygon class="cls-1" points="74.98 11.55 74.98 0 9.15 38.01 19.15 43.78 74.98 11.55"></polygon><polygon class="cls-1" points="138.48 43.78 148.48 38.01 82.65 0 82.65 11.55 138.48 43.78"></polygon><polygon class="cls-1" points="142.31 114.89 152.31 120.67 152.31 44.65 142.31 50.42 142.31 114.89"></polygon><polygon class="cls-1" points="19.15 121.53 9.15 127.31 74.98 165.31 74.98 153.77 19.15 121.53"></polygon><polygon class="cls-1" points="82.65 153.77 82.65 165.31 148.48 127.31 138.48 121.53 82.65 153.77"></polygon><polygon class="cls-1" points="15.31 50.42 5.32 44.65 5.32 120.67 15.31 114.89 15.31 50.42"></polygon><polygon class="cls-1" points="78.81 129.42 38.31 106.04 38.31 59.27 78.81 35.89 115.48 57.06 125.48 51.29 78.81 24.34 28.32 53.5 28.32 111.81 78.81 140.97 125.48 114.03 115.48 108.25 78.81 129.42"></polygon><path class="cls-1" d="M21.5,199.29c0,5.54-3.67,10.46-10.91,10.46-6.75,0-10.6-4.61-10.6-10.43C0,193.84,4.07,189,10.82,189,17.78,189,21.5,193.87,21.5,199.29Zm-16.42,0C5.09,203,7,206,10.88,206s5.54-3.39,5.54-6.64c0-3.5-1.72-6.58-5.74-6.58S5.09,195.9,5.09,199.26Z"></path><path class="cls-1" d="M25.77,209.32V189.43h5.71c5.59,8.53,7.83,11.64,9.07,14h.06c-.2-2.09-.17-5.79-.17-9.07v-4.92h4.44v19.89H39.5c-1.87-3-8.25-12.86-9.44-15.12H30c.17,2.43.17,5.29.17,8.82v6.3Z"></path><path class="cls-1" d="M66.28,200.93H55.18v4.52H67.53L67,209.32H50.35V189.43H66.88v3.87H55.18v3.76H66.28Z"></path><path class="cls-1" d="M90.75,203c-.9,3.5-3.67,6.75-9.92,6.75-7.12,0-10.54-4.92-10.54-10.34S74,189,81.09,189c6.1,0,9.13,3.39,9.72,6.7H85.92c-.42-1.13-1.5-3-4.89-3-3.73,0-5.65,2.85-5.65,6.47S77.13,206,81.06,206c2.83,0,4.07-1.1,4.86-3Z"></path><path class="cls-1" d="M110.33,200.93H99.22v4.52h12.35l-.57,3.87H94.39V189.43h16.53v3.87H99.22v3.76h11.11Z"></path><path class="cls-1" d="M115.41,209.32V189.43h5.71c5.59,8.53,7.83,11.64,9.07,14h.06c-.2-2.09-.17-5.79-.17-9.07v-4.92h4.44v19.89h-5.37c-1.87-3-8.25-12.86-9.44-15.12h-.06c.17,2.43.17,5.29.17,8.82v6.3Z"></path><path class="cls-1" d="M144.88,193.27h-7v-3.84h18.82v3.84h-7v16.05h-4.83Z"></path><path class="cls-1" d="M38.51,222.08h1.6v5.86h9.14v-5.86h1.6v14.24h-1.6v-7H40.12v7h-1.6Z"></path><path class="cls-1" d="M69.26,229.16a7.41,7.41,0,1,1-14.82,0,7.41,7.41,0,0,1,14.82,0Zm-13.12-.08c0,3.18,2,6.14,5.76,6.14s5.66-2.72,5.66-6a5.71,5.71,0,0,0-5.8-6A5.59,5.59,0,0,0,56.13,229.08Z"></path><path class="cls-1" d="M86.46,230c0-2.7,0-5.28.08-6.72h0c-.7,2-3.5,8.26-5.64,13.06H79.5c-1.58-3.82-4.64-10.92-5.42-13h0c.12,1.62.18,4.7.18,7.1v5.94h-1.5V222.08H75c2.1,4.74,4.84,11.12,5.26,12.26h0c.7-1.64,3.48-7.86,5.4-12.26H88v14.24H86.46Z"></path><path class="cls-1" d="M102.8,229.52h-8.7v5.4h9.58l-.22,1.4h-11V222.08h10.76v1.4H94.09v4.64h8.7Z"></path><path class="cls-1" d="M107.33,232.22c.54,1.78,1.84,3.06,4.76,3.06s4.16-1.2,4.16-2.64-.82-2.48-4.68-3.12c-4.1-.7-5.16-2-5.16-3.9,0-2.42,2.28-3.84,5.3-3.84,4.58,0,5.6,2.4,5.76,3.78h-1.64c-.32-1-1-2.42-4.14-2.42-2.16,0-3.62.74-3.62,2.32,0,1.26.58,2.08,4,2.64,5.08.84,5.9,2.44,5.9,4.38,0,2.2-1.78,4.14-5.92,4.14-3.86,0-5.86-1.76-6.34-4.4Z"></path></g></g></svg>